<mxfile host="app.diagrams.net" modified="2024-01-02T09:47:23.066Z" agent="Mozilla/5.0 (Macintosh; Intel Mac OS X 10_15_7) AppleWebKit/537.36 (KHTML, like Gecko) Chrome/120.0.0.0 Safari/537.36" version="22.1.16" etag="wJhdnSme8zH-7ziYz3so" type="github">
  <diagram name="Page-1" id="WgBGr7zgmyRak3oD3qZH">
    <mxGraphModel>
      <root>
        <mxCell id="0" />
        <mxCell id="1" parent="0" />
      </root>
    </mxGraphModel>
  </diagram>
</mxfile>
